# xmcd CD database file
#
# Track frame offsets:
#	150
#	12022
#	24533
#	37715
#	52100
#	64921
#	78738
#	93001
#	105676
#	117842
#	130805
#	145383
#	159261
#	173522
#	187711
#	201995
#	215859
#	231716
#	247119
#	260655
#	277550
#	291594
#	306260
#	320015
#	334351
#	346124
#
# Disc length: 4780 seconds
#
# Revision: 0
# Processed by: cddbd v1.5.2PL0 Copyright (c) Steve Scherf et al.
# Submitted via: CDex 1.51
#
DISCID=8212aa1a
DTITLE=Nat Shilkret - Hot 'N Happy 1927 - 1928
DYEAR=1928
DGENRE=Jazz
TTITLE0=I Know That You Know
TTITLE1=Ain't She Sweet
TTITLE2=Forgive Me
TTITLE3=Hallelujah
TTITLE4=There's Everything Nice About You
TTITLE5=Wherever You Go, Whatever You Do
TTITLE6=Me And My Shadow
TTITLE7=Just Like A Butterfly
TTITLE8=Ain't That A Grand And Glorious Feeling
TTITLE9=It's A Million To One You're In Love
TTITLE10=Baby's Blue
TTITLE11=Nothin'
TTITLE12=Did You Mean It
TTITLE13=Why Do I Love You
TTITLE14=Without You, Sweetheart
TTITLE15=Get Out And Get Under The Moon
TTITLE16=I Still Love You
TTITLE17=That's My Weakness Now
TTITLE18=You're Wonderful
TTITLE19=Nagasaki
TTITLE20=My Varsity Girl, I'll Cling To You
TTITLE21=Blossoms That Bloom In The Moonlight
TTITLE22=Cross Roads
TTITLE23=I Still Keep Dreaming Of You
TTITLE24=My Man
TTITLE25=I'd Rather Be Blue
EXTD=YEAR: 1928
EXTT0=
EXTT1=
EXTT2=
EXTT3=
EXTT4=
EXTT5=
EXTT6=
EXTT7=
EXTT8=
EXTT9=
EXTT10=
EXTT11=
EXTT12=
EXTT13=
EXTT14=
EXTT15=
EXTT16=
EXTT17=
EXTT18=
EXTT19=
EXTT20=
EXTT21=
EXTT22=
EXTT23=
EXTT24=
EXTT25=
PLAYORDER=
